<?xml version="1.0" encoding="UTF-8" standalone="no"?>
<!DOCTYPE svg PUBLIC "-//W3C//DTD SVG 1.1//EN"
 "http://www.w3.org/Graphics/SVG/1.1/DTD/svg11.dtd">
<!-- Generated by graphviz version 2.43.0 (0)
 -->
<!-- Title: D Pages: 1 -->
<svg width="541pt" height="661pt"
 viewBox="0.00 0.00 540.50 661.00" xmlns="http://www.w3.org/2000/svg" xmlns:xlink="http://www.w3.org/1999/xlink">
<g id="graph0" class="graph" transform="scale(1 1) rotate(0) translate(4 657)">
<title>D</title>
<polygon fill="white" stroke="transparent" points="-4,4 -4,-657 536.5,-657 536.5,4 -4,4"/>
<!-- 7 -->
<g id="node1" class="node">
<title>7</title>
<path fill="lightpink" stroke="black" d="M453,-605.5C453,-605.5 494,-605.5 494,-605.5 500,-605.5 506,-611.5 506,-617.5 506,-617.5 506,-640.5 506,-640.5 506,-646.5 500,-652.5 494,-652.5 494,-652.5 453,-652.5 453,-652.5 447,-652.5 441,-646.5 441,-640.5 441,-640.5 441,-617.5 441,-617.5 441,-611.5 447,-605.5 453,-605.5"/>
<text text-anchor="middle" x="473.5" y="-637.3" font-family="Times,serif" font-size="14.00">Constant</text>
<polyline fill="none" stroke="black" points="441,-629.5 506,-629.5 "/>
<text text-anchor="middle" x="473.5" y="-613.8" font-family="Times,serif" font-size="14.00">v7_0</text>
</g>
<!-- 8 -->
<g id="node2" class="node">
<title>8</title>
<path fill="none" stroke="black" d="M248.5,-484.5C248.5,-484.5 400.5,-484.5 400.5,-484.5 406.5,-484.5 412.5,-490.5 412.5,-496.5 412.5,-496.5 412.5,-542.5 412.5,-542.5 412.5,-548.5 406.5,-554.5 400.5,-554.5 400.5,-554.5 248.5,-554.5 248.5,-554.5 242.5,-554.5 236.5,-548.5 236.5,-542.5 236.5,-542.5 236.5,-496.5 236.5,-496.5 236.5,-490.5 242.5,-484.5 248.5,-484.5"/>
<text text-anchor="middle" x="258.5" y="-539.3" font-family="Times,serif" font-size="14.00">v0_0</text>
<polyline fill="none" stroke="black" points="280.5,-531.5 280.5,-554.5 "/>
<text text-anchor="middle" x="302.5" y="-539.3" font-family="Times,serif" font-size="14.00">v5_0</text>
<polyline fill="none" stroke="black" points="324.5,-531.5 324.5,-554.5 "/>
<text text-anchor="middle" x="346.5" y="-539.3" font-family="Times,serif" font-size="14.00">v6_0</text>
<polyline fill="none" stroke="black" points="368.5,-531.5 368.5,-554.5 "/>
<text text-anchor="middle" x="390.5" y="-539.3" font-family="Times,serif" font-size="14.00">v7_0</text>
<polyline fill="none" stroke="black" points="236.5,-531.5 412.5,-531.5 "/>
<text text-anchor="middle" x="324.5" y="-516.3" font-family="Times,serif" font-size="14.00">torch.bilinear[r2,r2,r3,r1]</text>
<polyline fill="none" stroke="black" points="236.5,-508.5 412.5,-508.5 "/>
<text text-anchor="middle" x="324.5" y="-492.8" font-family="Times,serif" font-size="14.00">v8_0</text>
</g>
<!-- 7&#45;&gt;8 -->
<g id="edge1" class="edge">
<title>7:o0&#45;&gt;8:i3</title>
<path fill="none" stroke="black" d="M473.5,-605.5C473.5,-592.52 459.79,-596.57 450.5,-587.5 434.87,-572.24 437.71,-550.69 423.42,-544.33"/>
<polygon fill="black" stroke="black" points="423.97,-540.87 413.5,-542.5 422.7,-547.76 423.97,-540.87"/>
<text text-anchor="middle" x="467.5" y="-576.3" font-family="Times,serif" font-size="14.00">f32[2]</text>
</g>
<!-- 3 -->
<g id="node3" class="node">
<title>3</title>
<path fill="none" stroke="black" d="M387,-0.5C387,-0.5 508,-0.5 508,-0.5 514,-0.5 520,-6.5 520,-12.5 520,-12.5 520,-58.5 520,-58.5 520,-64.5 514,-70.5 508,-70.5 508,-70.5 387,-70.5 387,-70.5 381,-70.5 375,-64.5 375,-58.5 375,-58.5 375,-12.5 375,-12.5 375,-6.5 381,-0.5 387,-0.5"/>
<text text-anchor="middle" x="411" y="-55.3" font-family="Times,serif" font-size="14.00">v2_0</text>
<polyline fill="none" stroke="black" points="447,-47.5 447,-70.5 "/>
<text text-anchor="middle" x="483.5" y="-55.3" font-family="Times,serif" font-size="14.00">v7_0</text>
<polyline fill="none" stroke="black" points="375,-47.5 520,-47.5 "/>
<text text-anchor="middle" x="447.5" y="-32.3" font-family="Times,serif" font-size="14.00">torch.logical_xor[r3,r1]</text>
<polyline fill="none" stroke="black" points="375,-24.5 520,-24.5 "/>
<text text-anchor="middle" x="447.5" y="-8.8" font-family="Times,serif" font-size="14.00">v3_0</text>
</g>
<!-- 7&#45;&gt;3 -->
<g id="edge2" class="edge">
<title>7:o0&#45;&gt;3:i1</title>
<path fill="none" stroke="black" d="M473.5,-605.5C473.5,-596.12 481.05,-596.22 484.5,-587.5 495.71,-559.22 498.5,-550.92 498.5,-520.5 498.5,-520.5 498.5,-520.5 498.5,-155.5 498.5,-120.73 486.18,-110.68 483.87,-80.55"/>
<polygon fill="black" stroke="black" points="487.37,-80.36 483.5,-70.5 480.37,-80.62 487.37,-80.36"/>
<text text-anchor="middle" x="515.5" y="-334.3" font-family="Times,serif" font-size="14.00">f32[2]</text>
</g>
<!-- 4 -->
<g id="node4" class="node">
<title>4</title>
<path fill="none" stroke="black" d="M264.5,-363.5C264.5,-363.5 384.5,-363.5 384.5,-363.5 390.5,-363.5 396.5,-369.5 396.5,-375.5 396.5,-375.5 396.5,-421.5 396.5,-421.5 396.5,-427.5 390.5,-433.5 384.5,-433.5 384.5,-433.5 264.5,-433.5 264.5,-433.5 258.5,-433.5 252.5,-427.5 252.5,-421.5 252.5,-421.5 252.5,-375.5 252.5,-375.5 252.5,-369.5 258.5,-363.5 264.5,-363.5"/>
<text text-anchor="middle" x="324.5" y="-418.3" font-family="Times,serif" font-size="14.00">v8_0</text>
<polyline fill="none" stroke="black" points="252.5,-410.5 396.5,-410.5 "/>
<text text-anchor="middle" x="324.5" y="-395.3" font-family="Times,serif" font-size="14.00">torch.Tensor.unfold[r2]</text>
<polyline fill="none" stroke="black" points="252.5,-387.5 396.5,-387.5 "/>
<text text-anchor="middle" x="324.5" y="-371.8" font-family="Times,serif" font-size="14.00">v4_0</text>
</g>
<!-- 8&#45;&gt;4 -->
<g id="edge3" class="edge">
<title>8:o0&#45;&gt;4:i0</title>
<path fill="none" stroke="black" d="M324.5,-484.5C324.5,-465.73 324.5,-458.62 324.5,-443.85"/>
<polygon fill="black" stroke="black" points="328,-443.5 324.5,-433.5 321,-443.5 328,-443.5"/>
<text text-anchor="middle" x="349" y="-455.3" font-family="Times,serif" font-size="14.00">f32[4, 2]</text>
</g>
<!-- 1 -->
<g id="node5" class="node">
<title>1</title>
<path fill="none" stroke="black" d="M12,-242.5C12,-242.5 359,-242.5 359,-242.5 365,-242.5 371,-248.5 371,-254.5 371,-254.5 371,-300.5 371,-300.5 371,-306.5 365,-312.5 359,-312.5 359,-312.5 12,-312.5 12,-312.5 6,-312.5 0,-306.5 0,-300.5 0,-300.5 0,-254.5 0,-254.5 0,-248.5 6,-242.5 12,-242.5"/>
<text text-anchor="middle" x="185.5" y="-297.3" font-family="Times,serif" font-size="14.00">v4_0</text>
<polyline fill="none" stroke="black" points="0,-289.5 371,-289.5 "/>
<text text-anchor="middle" x="185.5" y="-274.3" font-family="Times,serif" font-size="14.00">core.Slice {&#39;axis&#39;= 2, &#39;region&#39;= &#39;left&#39;, &#39;start&#39;= 0, &#39;end&#39;= 1, &#39;step&#39;= 1}</text>
<polyline fill="none" stroke="black" points="0,-266.5 371,-266.5 "/>
<text text-anchor="middle" x="185.5" y="-250.8" font-family="Times,serif" font-size="14.00">v1_0</text>
</g>
<!-- 4&#45;&gt;1 -->
<g id="edge4" class="edge">
<title>4:o0&#45;&gt;1:i0</title>
<path fill="none" stroke="black" d="M251.5,-375.5C214.43,-375.5 189.99,-356.74 186.06,-322.55"/>
<polygon fill="black" stroke="black" points="189.55,-322.29 185.5,-312.5 182.56,-322.68 189.55,-322.29"/>
<text text-anchor="middle" x="224" y="-334.3" font-family="Times,serif" font-size="14.00">f32[4, 2, 1]</text>
</g>
<!-- 2 -->
<g id="node6" class="node">
<title>2</title>
<path fill="none" stroke="black" d="M314.5,-121.5C314.5,-121.5 430.5,-121.5 430.5,-121.5 436.5,-121.5 442.5,-127.5 442.5,-133.5 442.5,-133.5 442.5,-179.5 442.5,-179.5 442.5,-185.5 436.5,-191.5 430.5,-191.5 430.5,-191.5 314.5,-191.5 314.5,-191.5 308.5,-191.5 302.5,-185.5 302.5,-179.5 302.5,-179.5 302.5,-133.5 302.5,-133.5 302.5,-127.5 308.5,-121.5 314.5,-121.5"/>
<text text-anchor="middle" x="337.5" y="-176.3" font-family="Times,serif" font-size="14.00">v1_0</text>
<polyline fill="none" stroke="black" points="372.5,-168.5 372.5,-191.5 "/>
<text text-anchor="middle" x="407.5" y="-176.3" font-family="Times,serif" font-size="14.00">v4_0</text>
<polyline fill="none" stroke="black" points="302.5,-168.5 442.5,-168.5 "/>
<text text-anchor="middle" x="372.5" y="-153.3" font-family="Times,serif" font-size="14.00">torch.maximum[r3,r3]</text>
<polyline fill="none" stroke="black" points="302.5,-145.5 442.5,-145.5 "/>
<text text-anchor="middle" x="372.5" y="-129.8" font-family="Times,serif" font-size="14.00">v2_0</text>
</g>
<!-- 4&#45;&gt;2 -->
<g id="edge5" class="edge">
<title>4:o0&#45;&gt;2:i1</title>
<path fill="none" stroke="black" d="M397.5,-375.5C435.57,-375.5 411.5,-251.86 407.92,-201.57"/>
<polygon fill="black" stroke="black" points="411.41,-201.35 407.5,-191.5 404.42,-201.64 411.41,-201.35"/>
<text text-anchor="middle" x="450" y="-273.8" font-family="Times,serif" font-size="14.00">f32[4, 2, 1]</text>
</g>
<!-- 1&#45;&gt;2 -->
<g id="edge9" class="edge">
<title>1:o0&#45;&gt;2:i0</title>
<path fill="none" stroke="black" d="M185.5,-242.5C185.5,-187.27 236.31,-180.19 291.21,-179.55"/>
<polygon fill="black" stroke="black" points="291.52,-183.05 301.5,-179.5 291.48,-176.05 291.52,-183.05"/>
<text text-anchor="middle" x="225" y="-213.3" font-family="Times,serif" font-size="14.00">f32[4, 2, 1]</text>
</g>
<!-- 2&#45;&gt;3 -->
<g id="edge10" class="edge">
<title>2:o0&#45;&gt;3:i0</title>
<path fill="none" stroke="black" d="M372.5,-121.5C372.5,-97.21 400.56,-97.88 408.46,-80.61"/>
<polygon fill="black" stroke="black" points="411.95,-80.99 410.5,-70.5 405.09,-79.61 411.95,-80.99"/>
<text text-anchor="middle" x="433" y="-92.3" font-family="Times,serif" font-size="14.00">f32[4, 2, 1]</text>
</g>
<!-- 6 -->
<g id="node7" class="node">
<title>6</title>
<path fill="lightpink" stroke="black" d="M344,-605.5C344,-605.5 385,-605.5 385,-605.5 391,-605.5 397,-611.5 397,-617.5 397,-617.5 397,-640.5 397,-640.5 397,-646.5 391,-652.5 385,-652.5 385,-652.5 344,-652.5 344,-652.5 338,-652.5 332,-646.5 332,-640.5 332,-640.5 332,-617.5 332,-617.5 332,-611.5 338,-605.5 344,-605.5"/>
<text text-anchor="middle" x="364.5" y="-637.3" font-family="Times,serif" font-size="14.00">Constant</text>
<polyline fill="none" stroke="black" points="332,-629.5 397,-629.5 "/>
<text text-anchor="middle" x="364.5" y="-613.8" font-family="Times,serif" font-size="14.00">v6_0</text>
</g>
<!-- 6&#45;&gt;8 -->
<g id="edge6" class="edge">
<title>6:o0&#45;&gt;8:i2</title>
<path fill="none" stroke="black" d="M364.5,-605.5C364.5,-585.41 351.92,-580.07 347.79,-564.81"/>
<polygon fill="black" stroke="black" points="351.21,-563.99 346.5,-554.5 344.27,-564.86 351.21,-563.99"/>
<text text-anchor="middle" x="391" y="-576.3" font-family="Times,serif" font-size="14.00">f32[2, 2, 2]</text>
</g>
<!-- 5 -->
<g id="node8" class="node">
<title>5</title>
<path fill="#98f5ff" stroke="black" d="M271.5,-605.5C271.5,-605.5 301.5,-605.5 301.5,-605.5 307.5,-605.5 313.5,-611.5 313.5,-617.5 313.5,-617.5 313.5,-640.5 313.5,-640.5 313.5,-646.5 307.5,-652.5 301.5,-652.5 301.5,-652.5 271.5,-652.5 271.5,-652.5 265.5,-652.5 259.5,-646.5 259.5,-640.5 259.5,-640.5 259.5,-617.5 259.5,-617.5 259.5,-611.5 265.5,-605.5 271.5,-605.5"/>
<text text-anchor="middle" x="286.5" y="-637.3" font-family="Times,serif" font-size="14.00">Input</text>
<polyline fill="none" stroke="black" points="259.5,-629.5 313.5,-629.5 "/>
<text text-anchor="middle" x="286.5" y="-613.8" font-family="Times,serif" font-size="14.00">v5_0</text>
</g>
<!-- 5&#45;&gt;8 -->
<g id="edge7" class="edge">
<title>5:o0&#45;&gt;8:i1</title>
<path fill="none" stroke="black" d="M286.5,-605.5C286.5,-590.59 287.48,-586.54 292.5,-572.5 293.94,-568.46 296.23,-566.26 298.26,-564.13"/>
<polygon fill="black" stroke="black" points="301.67,-565.06 302.5,-554.5 295.27,-562.24 301.67,-565.06"/>
<text text-anchor="middle" x="317" y="-576.3" font-family="Times,serif" font-size="14.00">f32[4, 2]</text>
</g>
<!-- 0 -->
<g id="node9" class="node">
<title>0</title>
<path fill="#98f5ff" stroke="black" d="M199.5,-605.5C199.5,-605.5 229.5,-605.5 229.5,-605.5 235.5,-605.5 241.5,-611.5 241.5,-617.5 241.5,-617.5 241.5,-640.5 241.5,-640.5 241.5,-646.5 235.5,-652.5 229.5,-652.5 229.5,-652.5 199.5,-652.5 199.5,-652.5 193.5,-652.5 187.5,-646.5 187.5,-640.5 187.5,-640.5 187.5,-617.5 187.5,-617.5 187.5,-611.5 193.5,-605.5 199.5,-605.5"/>
<text text-anchor="middle" x="214.5" y="-637.3" font-family="Times,serif" font-size="14.00">Input</text>
<polyline fill="none" stroke="black" points="187.5,-629.5 241.5,-629.5 "/>
<text text-anchor="middle" x="214.5" y="-613.8" font-family="Times,serif" font-size="14.00">v0_0</text>
</g>
<!-- 0&#45;&gt;8 -->
<g id="edge8" class="edge">
<title>0:o0&#45;&gt;8:i0</title>
<path fill="none" stroke="black" d="M214.5,-605.5C214.5,-580.14 208.21,-551.84 225.18,-544.38"/>
<polygon fill="black" stroke="black" points="226.29,-547.74 235.5,-542.5 225.03,-540.85 226.29,-547.74"/>
<text text-anchor="middle" x="239" y="-576.3" font-family="Times,serif" font-size="14.00">f32[4, 2]</text>
</g>
</g>
</svg>
